<?xml version="1.0" encoding="UTF-8"?>
<svg id="_Слой_1" data-name="Слой 1" xmlns="http://www.w3.org/2000/svg" viewBox="0 0 580 202.588">
  <defs>
    <style>
      .cls-1 {
        fill: #fff;
      }

      .cls-1, .cls-2 {
        font-family: ArialMT, Arial;
        font-size: 151px;
      }

      .cls-3 {
        fill: #ffa31a;
      }
    </style>
  </defs>
  <g>
    <rect x=".5" y=".5" width="579" height="199" rx="19.5" ry="19.5"/>
    <path d="m560,1c10.477,0,19,8.523,19,19v160c0,10.477-8.523,19-19,19H20c-10.477,0-19-8.523-19-19V20C1,9.523,9.523,1,20,1h540m0-1H20C8.954,0,0,8.954,0,20v160c0,11.046,8.954,20,20,20h540c11.046,0,20-8.954,20-20V20c0-11.046-8.954-20-20-20h0Z"/>
  </g>
  <rect class="cls-3" x="424" y="19" width="131" height="160" rx="20" ry="20"/>
  <text class="cls-1" transform="translate(27.303 151.61)"><tspan x="0" y="0">Beton</tspan></text>
  <text class="cls-2" transform="translate(439.1 153.557)"><tspan x="0" y="0">It</tspan></text>
</svg>