<?xml version="1.0" standalone="no"?>
<!DOCTYPE svg PUBLIC "-//W3C//DTD SVG 20010904//EN"
 "http://www.w3.org/TR/2001/REC-SVG-20010904/DTD/svg10.dtd">
<svg version="1.0" xmlns="http://www.w3.org/2000/svg"
 width="1813.000000pt" height="633.000000pt" viewBox="0 0 1813.000000 633.000000"
 preserveAspectRatio="xMidYMid meet">

<g transform="translate(0.000000,633.000000) scale(0.100000,-0.100000)"
fill="#000000" stroke="none">
<path d="M490 6314 c-176 -37 -340 -164 -419 -325 -77 -156 -72 71 -69 -2816
l3 -2588 22 -65 c67 -196 224 -351 418 -413 l70 -22 8550 0 8550 0 70 22 c194
62 350 216 418 413 l22 65 3 2588 c3 2884 8 2660 -69 2815 -79 162 -245 290
-424 327 -103 22 -17044 21 -17145 -1z m16385 -599 c174 -44 328 -169 403
-326 72 -152 67 13 67 -2164 l0 -1970 -28 -82 c-70 -209 -233 -359 -445 -414
-73 -18 -125 -19 -1566 -19 -1647 0 -1565 -3 -1701 64 -123 61 -218 156 -281
279 -69 135 -65 -14 -62 2184 l3 1988 33 80 c76 188 232 328 423 379 83 23
3067 23 3154 1z m-14009 -700 c304 -46 539 -197 673 -436 136 -242 136 -606 0
-847 -46 -81 -197 -228 -286 -277 -40 -22 -73 -42 -73 -45 0 -3 43 -25 94 -49
121 -56 204 -110 287 -188 160 -151 229 -333 229 -601 0 -283 -88 -508 -274
-701 -125 -130 -269 -209 -461 -252 -99 -22 -111 -23 -962 -26 l-863 -4 0
1720 0 1721 766 0 c639 0 784 -3 870 -15z m4514 -610 l0 -335 203 -2 202 -3 0
-160 0 -160 -203 -3 -202 -2 2 -898 c3 -834 4 -899 21 -932 31 -62 65 -75 202
-75 66 0 134 2 150 5 l30 5 3 -162 c3 -185 15 -165 -112 -183 -116 -17 -319
-15 -391 5 -132 35 -207 91 -257 193 l-33 67 -3 987 -2 988 -168 2 -167 3 0
160 0 160 168 3 167 2 0 335 0 335 195 0 195 0 0 -335z m-1806 -297 c289 -57
528 -222 676 -468 116 -193 159 -385 176 -782 l7 -158 -912 0 -911 0 0 -74 c0
-230 78 -425 229 -577 131 -131 264 -187 461 -196 83 -4 136 -1 190 11 202 43
363 182 456 395 l33 76 195 3 c225 3 209 13 177 -104 -52 -186 -139 -335 -270
-464 -140 -138 -321 -228 -529 -266 -106 -19 -328 -21 -437 -4 -442 67 -757
375 -869 850 -36 150 -46 250 -46 450 1 403 92 705 288 952 246 309 652 442
1086 356z m3669 21 c556 -48 888 -390 984 -1014 23 -152 23 -491 -1 -630 -89
-524 -356 -853 -781 -960 -180 -46 -428 -50 -598 -11 -516 120 -804 538 -833
1214 -24 530 140 970 447 1202 173 130 360 190 644 209 11 0 73 -4 138 -10z
m2843 2 c283 -28 501 -154 602 -349 81 -156 76 -76 79 -1194 l4 -998 -195 0
-195 0 -3 908 c-3 893 -4 908 -25 969 -30 88 -65 144 -125 198 -65 58 -109 81
-205 106 -151 38 -322 17 -462 -56 -70 -37 -169 -127 -217 -199 -42 -61 -92
-177 -116 -268 -22 -81 -22 -99 -28 -868 l-5 -785 -197 -3 -198 -2 0 1240 0
1240 180 0 180 0 2 -207 3 -208 34 50 c183 267 393 400 670 425 122 10 117 10
217 1z"/>
<path d="M14200 3250 l0 -1720 220 0 220 0 0 1720 0 1720 -220 0 -220 0 0
-1720z"/>
<path d="M15437 4683 c-4 -3 -7 -156 -7 -340 l0 -333 -165 0 -165 0 0 -165 0
-165 165 0 165 0 0 -937 c0 -597 4 -961 10 -1002 37 -224 220 -333 535 -316
66 3 152 11 190 18 l70 12 0 165 0 165 -40 -5 c-22 -3 -89 -5 -150 -5 -123 0
-157 12 -191 69 -18 30 -19 70 -22 933 l-3 903 203 2 203 3 0 160 0 160 -202
3 -203 2 0 340 0 340 -193 0 c-107 0 -197 -3 -200 -7z"/>
<path d="M1670 4099 l0 -551 528 5 c460 3 536 6 597 22 206 51 342 177 389
361 19 72 21 229 5 306 -38 180 -180 324 -368 373 -98 25 -290 34 -738 35
l-413 0 0 -551z"/>
<path d="M1670 2569 l0 -590 608 3 c671 4 652 3 792 71 77 38 173 129 212 202
91 171 93 448 3 625 -42 84 -127 165 -219 210 -139 69 -149 70 -808 70 l-588
0 0 -591z"/>
<path d="M5161 3754 c-141 -30 -289 -127 -377 -246 -84 -115 -147 -280 -161
-425 l-6 -63 692 0 691 0 0 53 c0 28 -9 94 -20 145 -55 270 -237 469 -486 532
-92 24 -236 25 -333 4z"/>
<path d="M8965 3754 c-200 -49 -371 -208 -454 -424 -111 -287 -119 -686 -20
-985 86 -259 263 -433 490 -481 107 -23 271 -15 366 18 246 86 408 310 470
649 23 129 23 418 -1 549 -67 375 -239 601 -512 670 -93 24 -249 26 -339 4z"/>
</g>
</svg>
